<svg width="132" height="158" viewBox="0 0 132 158" fill="none" xmlns="http://www.w3.org/2000/svg">
<path d="M66.0231 7C98.5121 7 124.945 33.432 124.945 65.922C124.945 70.43 124.416 74.972 123.372 79.422L123.366 79.449L123.359 79.476L123.33 79.606C123.292 79.776 123.254 79.945 123.212 80.121C123.118 80.497 123.021 80.872 122.91 81.282L122.807 81.682C122.781 81.79 122.753 81.898 122.724 82.006C117.16 102.062 104.204 119.706 84.218 134.448C76.845 139.886 69.8101 143.912 64.4991 146.623V131.275V125.121L58.395 124.333C29.152 120.556 7.10105 95.444 7.10105 65.921C7.10205 33.432 33.5341 7 66.0231 7ZM66.0231 0C29.6161 0 0.102051 29.514 0.102051 65.922C0.102051 99.439 25.1221 127.094 57.5 131.276V157.5C57.5 157.5 114.939 136.257 129.47 83.878C129.548 83.595 129.608 83.34 129.68 83.066C129.794 82.642 129.905 82.216 130.011 81.789C130.074 81.526 130.13 81.275 130.188 81.02C131.326 76.169 131.946 71.119 131.946 65.922C131.945 29.514 102.432 0 66.0231 0Z" fill="#3A3A3A"/>
</svg>
